<svg width="406" height="62" viewBox="0 0 406 62" fill="none" xmlns="http://www.w3.org/2000/svg">
<path d="M34 16H61.008V22.912H42.384V33.536H51.856C53.904 33.536 55.7387 33.8773 57.36 34.56C59.024 35.2 60.432 36.1173 61.584 37.312C62.736 38.464 63.6107 39.872 64.208 41.536C64.8053 43.2 65.104 45.056 65.104 47.104C65.104 49.152 64.8053 51.008 64.208 52.672C63.6107 54.336 62.736 55.7653 61.584 56.96C60.432 58.112 59.024 59.0293 57.36 59.712C55.7387 60.352 53.904 60.672 51.856 60.672H34V16ZM50.576 53.952C52.4533 53.952 53.8827 53.5253 54.864 52.672C55.888 51.776 56.4 50.4107 56.4 48.576V45.632C56.4 43.7973 55.888 42.4533 54.864 41.6C53.8827 40.704 52.4533 40.256 50.576 40.256H42.384V53.952H50.576Z" fill="black"/>
<path d="M71.863 16H79.927V34.304L79.031 46.656H79.543L94.519 16H102.327V60.672H94.263V42.368L95.159 30.016H94.647L79.671 60.672H71.863V16Z" fill="black"/>
<path d="M110.238 16H118.302V34.304L117.406 46.656H117.918L132.894 16H140.702V60.672H132.638V42.368L133.534 30.016H133.022L118.046 60.672H110.238V16ZM125.47 12.864C120.435 12.864 116.979 10.56 115.102 5.952L113.63 2.368L120.222 0L122.398 6.848C122.739 6.976 123.187 7.08267 123.742 7.168C124.339 7.25334 124.915 7.296 125.47 7.296C126.025 7.296 126.579 7.25334 127.134 7.168C127.731 7.08267 128.201 6.976 128.542 6.848L130.718 0L137.31 2.368L135.838 5.952C133.961 10.56 130.505 12.864 125.47 12.864Z" fill="black"/>
<path d="M164.997 61.44C159.152 61.44 154.821 59.4347 152.005 55.424C149.232 51.4133 147.845 45.7173 147.845 38.336C147.845 30.9973 149.232 25.3227 152.005 21.312C154.821 17.2587 159.152 15.232 164.997 15.232C167.216 15.232 169.157 15.5307 170.821 16.128C172.528 16.7253 174 17.5573 175.237 18.624C176.474 19.648 177.498 20.9067 178.309 22.4C179.12 23.8507 179.76 25.4507 180.229 27.2L172.549 29.376C172.25 28.352 171.909 27.392 171.525 26.496C171.141 25.6 170.65 24.832 170.053 24.192C169.498 23.5093 168.794 22.9973 167.941 22.656C167.088 22.272 166.064 22.08 164.869 22.08C161.968 22.08 159.877 23.1893 158.597 25.408C157.36 27.6267 156.741 30.656 156.741 34.496V42.176C156.741 46.016 157.36 49.0453 158.597 51.264C159.877 53.4827 161.968 54.592 164.869 54.592C166.064 54.592 167.088 54.4213 167.941 54.08C168.794 53.696 169.498 53.184 170.053 52.544C170.65 51.8613 171.141 51.072 171.525 50.176C171.909 49.28 172.25 48.32 172.549 47.296L180.229 49.472C179.76 51.2213 179.12 52.8427 178.309 54.336C177.498 55.7867 176.474 57.0453 175.237 58.112C174 59.136 172.528 59.9467 170.821 60.544C169.157 61.1413 167.216 61.44 164.997 61.44Z" fill="black"/>
<path d="M187.308 16H195.692V34.56H201.772L209.644 16H218.22L211.308 32.448C210.583 34.1547 209.857 35.392 209.132 36.16C208.407 36.8853 207.511 37.3547 206.444 37.568V37.888C207.511 38.144 208.385 38.6347 209.068 39.36C209.793 40.0427 210.519 41.2373 211.244 42.944L215.66 53.76H219.436V60.672H214.7C212.908 60.672 211.436 60.2453 210.284 59.392C209.132 58.496 208.129 57.024 207.276 54.976L201.772 41.472H195.692V60.672H187.308V16Z" fill="black"/>
<path d="M228 16H243.552C247.776 16 251.019 17.0667 253.28 19.2C255.584 21.2907 256.736 24.1493 256.736 27.776C256.736 30.336 256.096 32.384 254.816 33.92C253.579 35.456 251.808 36.5653 249.504 37.248V37.568C252.192 38.208 254.304 39.3813 255.84 41.088C257.419 42.752 258.208 45.12 258.208 48.192C258.208 50.0693 257.888 51.776 257.248 53.312C256.651 54.8053 255.776 56.1067 254.624 57.216C253.515 58.3253 252.149 59.1787 250.528 59.776C248.949 60.3733 247.157 60.672 245.152 60.672H228V16ZM242.592 54.592C244.939 54.592 246.688 54.1653 247.84 53.312C249.035 52.416 249.632 50.9013 249.632 48.768V46.656C249.632 44.5653 249.035 43.0933 247.84 42.24C246.688 41.344 244.939 40.896 242.592 40.896H236.192V54.592H242.592ZM241.504 35.072C243.765 35.072 245.429 34.6667 246.496 33.856C247.605 33.0453 248.16 31.6373 248.16 29.632V27.52C248.16 25.5147 247.605 24.1067 246.496 23.296C245.429 22.4853 243.765 22.08 241.504 22.08H236.192V35.072H241.504Z" fill="black"/>
<path d="M265.223 16H273.287V34.304L272.391 46.656H272.903L287.879 16H295.687V60.672H287.623V42.368L288.519 30.016H288.007L273.031 60.672H265.223V16Z" fill="black"/>
<path d="M303.918 16H312.302V34.56H318.382L326.254 16H334.83L327.918 32.448C327.193 34.1547 326.467 35.392 325.742 36.16C325.017 36.8853 324.121 37.3547 323.054 37.568V37.888C324.121 38.144 324.995 38.6347 325.678 39.36C326.403 40.0427 327.129 41.2373 327.854 42.944L332.27 53.76H336.046V60.672H331.31C329.518 60.672 328.046 60.2453 326.894 59.392C325.742 58.496 324.739 57.024 323.886 54.976L318.382 41.472H312.302V60.672H303.918V16Z" fill="black"/>
<path d="M341.973 16H350.037V34.304L349.141 46.656H349.653L364.629 16H372.437V60.672H364.373V42.368L365.269 30.016H364.757L349.781 60.672H341.973V16Z" fill="black"/>
<path d="M25 38.5C25 45.4036 19.4036 51 12.5 51C5.59644 51 0 45.4036 0 38.5C0 31.5964 5.59644 26 12.5 26C19.4036 26 25 31.5964 25 38.5Z" fill="#7381FF"/>
<path d="M406 38.5C406 45.4036 400.404 51 393.5 51C386.596 51 381 45.4036 381 38.5C381 31.5964 386.596 26 393.5 26C400.404 26 406 31.5964 406 38.5Z" fill="#97FF73"/>
</svg>
